<svg height="64" viewBox="0 0 64 64" width="64" xmlns="http://www.w3.org/2000/svg"><g fill="none" fill-rule="evenodd"><path d="m3 5h58v56h-58z" fill="#d8d8d8"/><path d="m13 16h38v19h-38z" fill="#ff78c7"/><path d="m3 4h58v7h-58z" fill="#0a3586"/><circle cx="6.5" cy="7.5" fill="#e43535" r="1.5"/><circle cx="11.5" cy="7.5" fill="#ffc05f" r="1.5"/><circle cx="16.5" cy="7.5" fill="#80d25b" r="1.5"/><path d="m56.682 22.975v4.707h-4.707" stroke="#979797" stroke-linecap="round" stroke-width="2" transform="matrix(.70710678 -.70710678 .70710678 .70710678 -1.997298 45.834097)"/><path d="m11.682 22.975v4.707h-4.707" stroke="#979797" stroke-linecap="round" stroke-width="2" transform="matrix(-.70710678 -.70710678 -.70710678 .70710678 33.835059 14.014941)"/><path d="m13 38h38v19h-38z" fill="#fff"/><path d="m19 42h27.3511982m-27.3511982 5h27.3511982m-27.3511982 5h27.3511982" stroke="#979797" stroke-linecap="square" stroke-width="2"/></g></svg>